<?xml version="1.0" standalone="no"?>
<!DOCTYPE svg PUBLIC "-//W3C//DTD SVG 20010904//EN"
 "http://www.w3.org/TR/2001/REC-SVG-20010904/DTD/svg10.dtd">
<svg version="1.0" xmlns="http://www.w3.org/2000/svg"
 width="563.000000pt" height="714.000000pt" viewBox="0 0 563.000000 714.000000"
 preserveAspectRatio="xMidYMid meet">

<g transform="translate(0.000000,714.000000) scale(0.100000,-0.100000)"
fill="#dc2626" stroke="none">
<path d="M4197 6877 l-738 -262 -204 -349 -204 -350 -108 -318 c-78 -229 -112
-318 -123 -318 -9 1 -113 173 -268 444 -231 404 -259 449 -322 511 l-69 69
-183 -23 c-101 -13 -184 -24 -186 -26 -2 -1 129 -235 290 -519 l293 -515 283
-1 282 0 463 140 462 141 291 195 292 196 230 571 c287 713 273 677 264 676
-4 0 -339 -118 -745 -262z"/>
<path d="M681 4598 l-561 -532 627 -213 627 -214 22 23 c67 70 1115 1250 1112
1252 -4 3 -1240 216 -1254 216 -6 0 -264 -239 -573 -532z"/>
<path d="M3728 5016 c-340 -62 -620 -115 -623 -118 -5 -4 923 -996 1115 -1192
l48 -48 641 213 c352 118 640 217 639 221 -2 3 -263 239 -582 522 -400 357
-585 516 -600 515 -11 -1 -299 -52 -638 -113z"/>
<path d="M2224 4148 c-318 -336 -594 -629 -613 -650 l-33 -39 7 -759 7 -759
615 -536 c491 -429 619 -535 633 -528 9 4 285 251 613 547 l597 539 0 762 0
762 -617 636 c-339 351 -619 637 -623 637 -3 0 -267 -275 -586 -612z"/>
<path d="M0 3020 l0 -798 365 -403 c201 -222 369 -405 374 -407 4 -1 137 118
294 264 l287 268 0 717 0 717 -660 220 -660 220 0 -798z"/>
<path d="M4980 3603 c-355 -119 -646 -216 -646 -217 -1 0 -5 -320 -9 -711 l-7
-710 306 -268 c169 -147 312 -270 319 -272 7 -2 163 187 350 422 l337 426 0
774 c0 425 -1 773 -2 772 -2 0 -293 -98 -648 -216z"/>
<path d="M1191 1436 c-139 -139 -252 -258 -250 -263 2 -5 222 -271 488 -591
l484 -582 383 0 384 0 0 293 0 294 -606 547 c-333 301 -611 549 -617 552 -7 2
-126 -110 -266 -250z"/>
<path d="M3571 1123 l-611 -547 0 -278 0 -278 388 0 388 0 489 577 c270 318
490 583 490 590 0 14 -510 483 -525 483 -5 0 -284 -246 -619 -547z"/>
</g>
</svg>
