<svg xmlns="http://www.w3.org/2000/svg" xmlns:xlink="http://www.w3.org/1999/xlink" width="1923" zoomAndPan="magnify" viewBox="0 0 1442.25 654.749986" height="873" preserveAspectRatio="xMidYMid meet" version="1.0"><defs><g/><clipPath id="d6c63553be"><path d="M 24 71 L 173.691406 71 L 173.691406 251 L 24 251 Z M 24 71 " clip-rule="nonzero"/></clipPath><clipPath id="8ec2ddf437"><rect x="0" width="174" y="0" height="313"/></clipPath><clipPath id="be25b90546"><rect x="0" width="779" y="0" height="313"/></clipPath></defs><g transform="matrix(1, 0, 0, 1, 189, 170)"><g clip-path="url(#8ec2ddf437)"><g clip-path="url(#d6c63553be)"><g fill="#eb402b" fill-opacity="1"><g transform="translate(0.752889, 244.263644)"><g><path d="M 95.28125 5.96875 L 59.453125 5.96875 L 80.8125 -160.703125 L 24.109375 -160.703125 L 28.015625 -172.40625 L 172.640625 -172.40625 L 168.96875 -160.703125 L 114.5625 -160.703125 Z M 95.28125 5.96875 "/></g></g></g></g></g></g><g transform="matrix(1, 0, 0, 1, 317, 170)"><g clip-path="url(#be25b90546)"><g fill="#eb402b" fill-opacity="1"><g transform="translate(0.681856, 244.263644)"><g><path d="M 123.75 5.96875 L 18.59375 5.96875 L 34.4375 -116.390625 L 138.4375 -116.390625 Z M 92.296875 -5.515625 L 104.234375 -104.921875 L 65.65625 -104.921875 L 52.796875 -5.515625 Z M 92.296875 -5.515625 "/></g></g></g><g fill="#eb402b" fill-opacity="1"><g transform="translate(138.87692, 244.263644)"><g><path d="M 180.671875 5.96875 L 144.859375 5.96875 L 161.625 -140.046875 L 115.25 -55.5625 L 100.5625 -55.5625 L 74.609375 -142.5625 L 57.390625 5.96875 L 21.578125 5.96875 L 44.53125 -172.640625 L 78.0625 -172.640625 L 109.515625 -70.25 L 165.296875 -172.640625 L 199.046875 -172.640625 Z M 180.671875 5.96875 "/></g></g></g><g fill="#eb402b" fill-opacity="1"><g transform="translate(332.855057, 244.263644)"><g><path d="M 123.75 5.96875 L 18.59375 5.96875 L 34.4375 -116.390625 L 138.4375 -116.390625 Z M 92.296875 -5.515625 L 104.234375 -104.921875 L 65.65625 -104.921875 L 52.796875 -5.515625 Z M 92.296875 -5.515625 "/></g></g></g><g fill="#eb402b" fill-opacity="1"><g transform="translate(471.050121, 244.263644)"><g><path d="M 167.359375 5.96875 L 123.515625 5.96875 L 67.265625 -80.359375 L 57.390625 5.96875 L 21.578125 5.96875 L 44.53125 -172.40625 L 78.0625 -172.40625 L 68.640625 -92.515625 L 141.875 -172.40625 L 182.28125 -172.40625 L 100.328125 -86.546875 Z M 167.359375 5.96875 "/></g></g></g><g fill="#eb402b" fill-opacity="1"><g transform="translate(637.710591, 244.263644)"><g><path d="M 123.75 5.96875 L 18.59375 5.96875 L 34.4375 -116.390625 L 138.4375 -116.390625 Z M 92.296875 -5.515625 L 104.234375 -104.921875 L 65.65625 -104.921875 L 52.796875 -5.515625 Z M 92.296875 -5.515625 "/></g></g></g></g></g></svg>